PathFileType	4	(X/Y/Z)	C:/Users/opensim2020/Desktop/walking_exp_matlab/subject02_walking07_straight_04.trc	
DataRate	CameraRate	NumFrames	NumMarkers	Units	OrigDataRate	OrigDataStartFrame	OrigNumFrames	
100.00	100.00	4	50	mm	100.00	2876	207	
Frame#	Time	LFHD			RFHD			LBHD			RBHD			C7			T10			CLAV			STRN			RBAK			LSHO			LUPA			LELB			LFRM			LWRA			LWRB			LFIN			RSHO			RUPA			RELB			RFRM			RWRA			RWRB			RFIN			LASI			RASI			LPSI			RPSI			LTHI			LKNE			LTIB			LANK			LHEE			LTOE			RTHI			RKNE			RTIB			RANK			RHEE			RTOE			*39			*40			*41			*42			*43			*44			*45			*46			*47			*48			*49			
		X1	Y1	Z1	X2	Y2	Z2	X3	Y3	Z3	X4	Y4	Z4	X5	Y5	Z5	X6	Y6	Z6	X7	Y7	Z7	X8	Y8	Z8	X9	Y9	Z9	X10	Y10	Z10	X11	Y11	Z11	X12	Y12	Z12	X13	Y13	Z13	X14	Y14	Z14	X15	Y15	Z15	X16	Y16	Z16	X17	Y17	Z17	X18	Y18	Z18	X19	Y19	Z19	X20	Y20	Z20	X21	Y21	Z21	X22	Y22	Z22	X23	Y23	Z23	X24	Y24	Z24	X25	Y25	Z25	X26	Y26	Z26	X27	Y27	Z27	X28	Y28	Z28	X29	Y29	Z29	X30	Y30	Z30	X31	Y31	Z31	X32	Y32	Z32	X33	Y33	Z33	X34	Y34	Z34	X35	Y35	Z35	X36	Y36	Z36	X37	Y37	Z37	X38	Y38	Z38	X39	Y39	Z39	X40	Y40	Z40	X41	Y41	Z41	X42	Y42	Z42	X43	Y43	Z43	X44	Y44	Z44	X45	Y45	Z45	X46	Y46	Z46	X47	Y47	Z47	X48	Y48	Z48	X49	Y49	Z49	X50	Y50	Z50	

156	1.550	-970.16235	-702.50098	1714.97437	-1112.66113	-696.20264	1700.09875	-960.38202	-562.22888	1661.32568	-1101.86743	-543.53174	1646.78223	-1045.70142	-492.77548	1516.39294	-1059.96167	-441.62207	1239.20703	-1023.00476	-631.63831	1447.19836	-1044.82068	-687.23102	1278.47339	-1124.65588	-442.23886	1343.90295	-864.71655	-536.19806	1480.46582	-802.12006	-457.57138	1294.08643	-804.39246	-413.64618	1160.31665	-793.65771	-373.77481	1035.36096	-814.83270	-388.03384	895.09186	-793.51398	-339.34125	916.16974	-793.05847	-329.22079	848.73560	-1222.87085	-585.65857	1497.55481	-1325.77917	-609.84229	1314.75879	-1354.34924	-673.49664	1181.86414	-1366.59241	-751.76794	1089.05908	-1339.30603	-845.66290	996.21082	-1377.30005	-811.13391	973.28864	-1375.69971	-873.80078	937.28815	-936.62317	-680.89233	978.41583	-1192.04858	-659.12335	962.08063	-998.65894	-464.97394	1022.18024	-1112.12598	-450.53174	1022.76038	-858.51843	-667.07733	674.06421	-891.61987	-705.53571	477.23163	-888.23737	-730.04248	285.48587	-900.64172	-836.10437	83.95702	-957.18707	-821.84204	45.60098	-875.46429	-989.82123	99.60286	-1232.10791	-536.56207	659.19873	-1183.42590	-497.83228	452.62415	-1180.44763	-417.02307	281.12137	-1133.71924	-362.48624	96.18399	-1074.69348	-323.92764	44.59925	-1160.78455	-505.74835	34.66438	-1055.26660	-609.75049	1797.52075																														 
157	1.560	-968.81458	-711.26971	1713.13586	-1111.18323	-705.55402	1698.33496	-959.29517	-571.27264	1659.79004	-1100.77893	-552.80731	1645.24780	-1044.77600	-501.54434	1514.52271	-1059.29785	-450.82309	1237.38733	-1021.92639	-640.59406	1445.46863	-1043.69446	-696.35132	1276.72900	-1123.22949	-451.70520	1341.95117	-863.93762	-544.53308	1478.81250	-801.65790	-466.39322	1292.02893	-804.16040	-422.50296	1158.50415	-793.36072	-382.22110	1033.60168	-813.31750	-396.03687	893.31165	-792.85077	-347.26898	914.54187	-792.27820	-337.33289	847.19775	-1221.87573	-595.32251	1495.57813	-1324.39331	-620.17615	1312.78076	-1352.94666	-684.69312	1180.53247	-1364.87756	-763.51416	1087.98560	-1337.53809	-857.92596	995.71429	-1375.51379	-823.56549	972.54199	-1374.03223	-886.57495	936.84888	-936.40027	-690.27234	976.91724	-1191.40149	-668.84204	960.36597	-997.72595	-474.21292	1020.57397	-1111.19971	-459.90192	1021.07642	-858.94403	-679.06787	672.20203	-891.43097	-718.27417	476.50790	-887.98828	-743.33105	284.76105	-901.64050	-849.48895	83.43073	-958.39941	-834.68121	45.12146	-876.70660	-1003.16071	99.57976	-1231.74780	-543.38495	658.24225	-1183.53870	-502.87173	451.87903	-1180.48706	-419.83371	281.40015	-1133.57922	-363.08453	96.89638	-1074.42297	-324.25232	45.71172	-1160.81335	-505.55542	34.62957	-1053.93103	-619.05536	1795.78113	-3356.93359	2845.97461	1033.97290																											 
158	1.570	-967.04681	-720.63922	1711.50452	-1109.55591	-714.88965	1696.58044	-958.17682	-579.94916	1657.95166	-1099.74963	-562.02429	1643.68042	-1044.20703	-510.69418	1512.86804	-1058.58215	-460.19098	1235.58093	-1020.67517	-649.58844	1443.79736	-1042.45886	-705.86084	1275.21130	-1122.83362	-460.92377	1340.23633	-863.02155	-552.85168	1477.10120	-800.92908	-475.06873	1290.19153	-803.77972	-431.57684	1156.37781	-792.51349	-391.40170	1031.78564	-811.51538	-405.21341	891.08661	-791.85986	-356.51694	912.77075	-791.17944	-345.95715	845.20160	-1220.83557	-604.73834	1493.76135	-1322.82874	-630.41364	1310.67480	-1351.40137	-695.81763	1178.79736	-1363.12561	-774.99457	1086.68762	-1335.85571	-870.01288	995.07013	-1373.58203	-835.61041	971.51917	-1372.17639	-898.72400	936.40790	-935.93079	-699.81219	975.40033	-1191.40161	-677.40625	958.41370	-996.81055	-483.59320	1018.96429	-1110.36108	-469.49475	1019.46429	-858.82458	-690.40778	670.72034	-891.13171	-731.91248	476.17090	-887.55597	-756.06604	284.08115	-902.86896	-860.63593	82.32668	-959.12445	-846.10248	45.00606	-878.21545	-1014.59558	97.71995	-1231.41248	-550.47235	657.29950	-1183.61853	-508.24551	451.16129	-1180.55908	-422.68832	281.75720	-1133.74854	-363.76639	98.05683	-1074.39771	-324.51282	47.14172	-1161.07764	-505.67670	34.62827	-1052.73621	-628.52313	1794.26343																														 
159	1.580	-965.21991	-729.18994	1709.69031	-1108.01440	-724.22888	1694.94702	-956.92029	-588.82605	1656.41626	-1098.49963	-571.39032	1642.24890	-1043.07312	-519.57434	1511.01245	-1057.89343	-469.49402	1233.86340	-1019.33307	-658.71771	1442.20459	-1041.14575	-714.64203	1273.41394	-1121.69690	-470.28625	1338.37537	-861.91217	-561.27783	1475.36023	-800.14581	-485.07446	1288.07849	-802.98901	-441.31714	1154.08093	-791.79681	-401.24307	1029.61536	-809.49982	-414.50281	888.84680	-790.70154	-365.84045	910.52808	-789.89600	-355.41156	843.14978	-1219.78870	-614.28693	1491.89148	-1321.17639	-640.62122	1308.46057	-1349.48669	-706.58978	1176.89771	-1361.15344	-786.28931	1085.04065	-1333.71606	-881.27637	993.83807	-1371.46277	-847.22009	970.23633	-1370.15247	-910.49701	935.48810	-935.07251	-709.59106	973.79425	-1190.64294	-686.79449	956.54596	-996.08197	-492.95480	1017.37250	-1109.57410	-479.25906	1017.87061	-857.82025	-703.75134	670.21497	-890.72205	-745.46295	475.77969	-887.12555	-768.06665	283.26944	-903.84711	-870.14441	80.87633	-960.67731	-855.49200	43.18268	-879.80524	-1024.10522	94.62827	-1230.89624	-557.75446	656.34515	-1183.72888	-513.86920	450.45010	-1180.50598	-425.94464	282.11087	-1133.95251	-364.51266	99.28863	-1074.44629	-324.77274	48.75765	-1161.30310	-505.79001	34.63823	-1051.30042	-637.70020	1792.80127	-3360.27979	2845.20190	1033.96692																											 
